<svg width="25" height="21" viewBox="0 0 25 21" preserveAspectRatio="none" fill="none" xmlns="http://www.w3.org/2000/svg">
<path d="M10.9858 0.0777779C5.81253 0.619434 1.65047 3.6943 0.352275 7.92907C0.0652361 8.85372 0 9.34613 0 10.5006C0 11.3213 0.032618 11.759 0.110901 12.142C0.352275 13.2581 0.658884 14.0678 1.20034 15.0253C2.43983 17.2084 4.42301 18.8771 7.03897 19.9385C10.5095 21.3447 14.4237 21.3556 17.8943 19.9604C21.7823 18.3956 24.3983 15.3208 24.9137 11.7043C25.4095 8.22999 23.7459 4.71743 20.5428 2.46873C17.8812 0.597549 14.3846 -0.277857 10.9858 0.0777779ZM11.3902 5.85545C11.7294 5.91564 11.7686 5.94846 14.0779 7.86888C16.4721 9.86043 16.6548 10.0519 16.6613 10.4459C16.6613 10.9547 16.6613 10.9602 14.228 13.0119C12.708 14.2867 11.8403 14.9816 11.6707 15.0472C11.338 15.1785 10.8944 15.1785 10.5617 15.0472C10.2812 14.9433 9.90936 14.6204 9.80498 14.4016C9.71365 14.1992 9.73322 13.7505 9.84412 13.5207C9.90936 13.3894 10.5161 12.8368 11.6251 11.9122L13.3016 10.5006L11.5664 9.03974C10.0007 7.71569 9.82455 7.54608 9.74627 7.31629C9.55056 6.7035 9.95503 6.05789 10.6596 5.87734C11.0314 5.78433 10.9858 5.78433 11.3902 5.85545Z" fill="white"/>
</svg>
