<svg width="40" height="40" viewBox="0 0 40 40" fill="none" xmlns="http://www.w3.org/2000/svg">
<g clip-path="url(#clip0_11_2025)">
<path d="M7.21229 17.3939C7.09114 17.23 7.00374 17.0437 6.95519 16.8458C6.90664 16.6478 6.89789 16.4423 6.92946 16.2409C6.96102 16.0396 7.03227 15.8465 7.13907 15.673C7.24587 15.4994 7.38608 15.3488 7.55158 15.2299C7.71707 15.111 7.90454 15.0261 8.1031 14.9802C8.30166 14.9344 8.50735 14.9284 8.70823 14.9627C8.90912 14.997 9.10118 15.0709 9.27328 15.18C9.44538 15.2891 9.59408 15.4314 9.71075 15.5985C10.1784 16.2492 10.9 16.8708 11.8338 17.4092C13.8231 18.5569 16.58 19.2308 19.5446 19.2308C22.5108 19.2308 25.2677 18.5569 27.2569 17.4092C28.1908 16.8708 28.9123 16.2492 29.38 15.5985C29.4967 15.4314 29.6454 15.2891 29.8175 15.18C29.9895 15.0709 30.1816 14.997 30.3825 14.9627C30.5834 14.9284 30.7891 14.9344 30.9876 14.9802C31.1862 15.0261 31.3737 15.111 31.5392 15.2299C31.7046 15.3488 31.8449 15.4994 31.9517 15.673C32.0585 15.8465 32.1297 16.0396 32.1613 16.2409C32.1928 16.4423 32.1841 16.6478 32.1355 16.8458C32.087 17.0437 31.9996 17.23 31.8784 17.3939C31.14 18.4231 30.0877 19.3277 28.7954 20.0739C26.3154 21.5046 23.0292 22.3077 19.5446 22.3077C16.0615 22.3077 12.7754 21.5046 10.2954 20.0739C9.00306 19.3277 7.95075 18.4231 7.21229 17.3939Z" fill="white"/>
<path d="M21.5383 21.5385C21.5383 21.1304 21.3763 20.7391 21.0877 20.4506C20.7992 20.1621 20.4079 20 19.9999 20C19.5919 20 19.2005 20.1621 18.912 20.4506C18.6235 20.7391 18.4614 21.1304 18.4614 21.5385V25.3846C18.4614 25.7926 18.6235 26.184 18.912 26.4725C19.2005 26.761 19.5919 26.9231 19.9999 26.9231C20.4079 26.9231 20.7992 26.761 21.0877 26.4725C21.3763 26.184 21.5383 25.7926 21.5383 25.3846V21.5385ZM13.123 21.1662C13.2275 20.7765 13.4809 20.4435 13.8287 20.2389C14.1764 20.0343 14.5906 19.9744 14.982 20.0723C15.3734 20.1701 15.7107 20.4178 15.9213 20.762C16.1318 21.1062 16.1987 21.5193 16.1076 21.9123L15.3383 24.9892C15.2922 25.1882 15.2069 25.376 15.0874 25.5417C14.968 25.7073 14.8167 25.8475 14.6424 25.9541C14.4682 26.0607 14.2745 26.1315 14.0726 26.1625C13.8707 26.1934 13.6647 26.1838 13.4665 26.1343C13.2684 26.0847 13.082 25.9962 12.9185 25.8739C12.7549 25.7516 12.6173 25.598 12.5137 25.4219C12.4101 25.2459 12.3426 25.051 12.3151 24.8486C12.2877 24.6462 12.3008 24.4404 12.3537 24.2431L13.123 21.1662ZM26.1076 21.1662C26.003 20.7765 25.7496 20.4435 25.4019 20.2389C25.0541 20.0343 24.6399 19.9744 24.2485 20.0723C23.8571 20.1701 23.5198 20.4178 23.3093 20.762C23.0987 21.1062 23.0318 21.5193 23.123 21.9123L23.8922 24.9892C23.9383 25.1882 24.0236 25.376 24.1431 25.5417C24.2626 25.7073 24.4138 25.8475 24.5881 25.9541C24.7623 26.0607 24.956 26.1315 25.1579 26.1625C25.3598 26.1934 25.5659 26.1838 25.764 26.1343C25.9622 26.0847 26.1485 25.9962 26.3121 25.8739C26.4757 25.7516 26.6133 25.598 26.7168 25.4219C26.8204 25.2459 26.8879 25.051 26.9154 24.8486C26.9428 24.6462 26.9297 24.4404 26.8768 24.2431L26.1076 21.1662ZM30.0383 17.3739C29.8964 17.2269 29.7267 17.1097 29.539 17.0291C29.3513 16.9484 29.1494 16.906 28.9451 16.9042C28.7408 16.9025 28.5383 16.9414 28.3492 17.0187C28.1601 17.0961 27.9883 17.2103 27.8439 17.3548C27.6994 17.4992 27.5852 17.671 27.5078 17.8601C27.4305 18.0491 27.3916 18.2517 27.3933 18.456C27.3951 18.6603 27.4376 18.8622 27.5182 19.0499C27.5988 19.2376 27.716 19.4073 27.863 19.5492L30.9399 22.6262C31.23 22.9064 31.6187 23.0615 32.022 23.058C32.4254 23.0545 32.8113 22.8927 33.0965 22.6074C33.3818 22.3222 33.5436 21.9363 33.5471 21.5329C33.5506 21.1295 33.3955 20.7409 33.1153 20.4508L30.0383 17.3739ZM9.35065 17.4262C9.62525 17.1242 10.0085 16.9437 10.4162 16.9244C10.8239 16.9051 11.2226 17.0485 11.5245 17.3231C11.8264 17.5977 12.0069 17.981 12.0263 18.3887C12.0456 18.7963 11.9022 19.195 11.6276 19.4969L8.83065 22.5739C8.69468 22.7234 8.5306 22.8446 8.34777 22.9307C8.16493 23.0168 7.96694 23.066 7.76507 23.0756C7.56321 23.0852 7.36145 23.0549 7.17129 22.9865C6.98113 22.9181 6.80631 22.8129 6.6568 22.6769C6.5073 22.541 6.38604 22.3769 6.29995 22.194C6.21386 22.0112 6.16462 21.8132 6.15505 21.6114C6.14548 21.4095 6.17576 21.2077 6.24416 21.0176C6.31257 20.8274 6.41776 20.6526 6.55373 20.5031L9.35065 17.4262Z" fill="white"/>
<path d="M6.60472 8.78001C6.32447 8.48985 6.1694 8.10123 6.17291 7.69785C6.17641 7.29447 6.33821 6.90861 6.62346 6.62337C6.9087 6.33812 7.29457 6.17632 7.69795 6.17282C8.10132 6.16931 8.48994 6.32438 8.7801 6.60463L33.3955 31.22C33.6757 31.5102 33.8308 31.8988 33.8273 32.3022C33.8238 32.7055 33.662 33.0914 33.3767 33.3767C33.0915 33.662 32.7056 33.8237 32.3023 33.8272C31.8989 33.8307 31.5103 33.6756 31.2201 33.3954L6.60472 8.78001Z" fill="white"/>
<path fill-rule="evenodd" clip-rule="evenodd" d="M20 36.9231C29.3462 36.9231 36.9231 29.3462 36.9231 20C36.9231 10.6538 29.3462 3.07692 20 3.07692C10.6538 3.07692 3.07692 10.6538 3.07692 20C3.07692 29.3462 10.6538 36.9231 20 36.9231ZM20 40C31.0462 40 40 31.0462 40 20C40 8.95385 31.0462 0 20 0C8.95385 0 0 8.95385 0 20C0 31.0462 8.95385 40 20 40Z" fill="white"/>
</g>
<defs>
<clipPath id="clip0_11_2025">
<rect width="40" height="40" fill="white"/>
</clipPath>
</defs>
</svg>
