<svg width="1512" height="886" viewBox="0 0 1512 886" fill="none" xmlns="http://www.w3.org/2000/svg">
<path d="M-18 343.176C-18 342.155 -8.29762 332.437 24.5311 298.85C48.0274 274.811 83.9136 235.135 115.868 203.9C147.822 172.665 174.376 150.707 193.162 136.331C211.948 121.956 222.161 115.828 236.869 108.586C251.578 101.344 270.472 93.1736 286.333 87.6879C313.97 78.1295 334.226 76.5077 349.143 76.5C356.927 76.496 365.081 78.5349 370.822 81.1113C376.563 83.6878 379.627 87.2624 381.716 92.6784C386.374 104.755 385.368 133.546 383.828 168.588C382.911 189.468 377.646 199.745 373.53 207.97C371.252 212.523 369.414 218.237 353.042 242.067C336.671 265.897 306.031 307.771 283.099 344.917C260.166 382.063 245.867 413.213 237.225 433.345C228.583 453.477 226.029 461.647 222.927 481.176C219.824 500.704 216.25 531.343 215.174 555.553C214.099 579.762 215.631 596.614 219.739 614.742C223.848 632.87 230.486 651.764 237.736 668.391C244.985 685.018 252.645 698.806 261.698 712.802C270.75 726.799 280.963 740.587 291.586 752.54C302.209 764.494 312.933 774.197 326.372 781.493C339.812 788.789 355.642 793.385 375.031 797.029C394.421 800.673 416.889 803.226 443.273 801.988C469.656 800.751 499.274 795.644 542.362 778.204C585.451 760.765 641.112 731.147 698.382 697.761C755.652 664.376 812.845 628.119 849.713 607.399C886.58 586.679 901.389 582.594 914.89 579.724C939.957 574.394 962.961 574.764 987.124 579.631C1000.83 582.391 1016.39 590.115 1029.14 597.364C1052.21 610.476 1068.22 630.379 1080.59 647.896C1085.6 654.995 1086.83 659.285 1090.43 674.921C1094.03 690.558 1099.65 717.623 1105.09 737.182C1113.83 768.541 1124.99 783.636 1133.48 791.358C1149.96 806.353 1172.9 809.447 1200.98 808.967C1211.65 808.785 1226.35 804.372 1254.91 788.24C1283.48 772.108 1325.35 743.001 1352.03 725.708C1378.71 708.415 1388.92 703.82 1399.03 698.643C1419.12 688.363 1439.06 678.999 1463.47 674.101C1495 667.776 1517.02 672.252 1535.19 681.715C1550.54 689.708 1577.37 705.986 1593.86 716.694C1616.32 731.271 1630.94 742.366 1649.48 750.351C1675.86 757.887 1690.84 758.397 1698.55 758.916C1702.69 758.924 1707.29 758.413 1715.12 757.887" stroke="#C8F135" stroke-width="153" stroke-linecap="round"/>
</svg>
