<svg width="1512" height="1130" viewBox="0 0 1512 1130" fill="none" xmlns="http://www.w3.org/2000/svg">
<path d="M-28 466.344C-10.3198 450.459 7.36045 434.574 95.1455 362.508C182.93 290.442 340.285 162.675 430.186 91.6759C520.087 20.6769 537.767 10.3175 559.693 -0.544266C606.325 -23.6447 648.697 -37.9849 679.423 -45.2993C710.335 -52.6578 732.732 -52.6765 742.978 -51.2952C748.151 -50.5979 752.341 -47.1514 755.06 -43.3111C757.779 -39.4708 758.663 -34.6364 759.118 -30.074C759.574 -25.5117 759.574 -21.3679 738.799 17.0249C718.025 55.4178 676.477 127.934 590.098 245.404C503.719 362.874 373.77 523.101 296.66 638.101C219.55 753.102 199.218 818.021 190.069 852.155C180.921 886.289 183.573 887.67 189.802 889.073C205.508 892.609 229.917 893.279 267.702 888.1C291.885 884.784 324.051 872.56 355.045 860.663C386.039 848.765 414.327 835.643 449.232 815.761C484.137 795.879 524.802 769.635 612.935 704.664C701.068 639.692 835.438 536.788 913.499 479.633C991.56 422.478 1009.24 414.19 1037.8 403.705C1066.35 393.22 1105.25 380.789 1136.34 374.04C1188.4 362.737 1220.25 370.032 1234.07 377.691C1254.72 389.131 1252.48 421.557 1248.94 452.154C1246.98 469.095 1238.33 488.276 1137.01 623.588C1035.68 758.899 840.313 1009.6 731.714 1152.9C623.114 1296.21 607.202 1324.53 599.005 1340.49C590.808 1356.46 590.808 1359.23 594.786 1360.3C606.071 1363.36 629.061 1356.53 687.178 1336.44C731.857 1321.01 804.524 1290.12 999.677 1182.62C1194.83 1075.12 1509.54 890.726 1678.29 790.898C1847.04 691.071 1860.3 681.402 1868.46 676.076C1876.62 670.749 1879.27 670.059 1882 665.162" stroke="#5A49FF" stroke-width="180" stroke-linecap="round"/>
</svg>
