<svg width="1429" height="1143" viewBox="0 0 1429 1143" fill="none" xmlns="http://www.w3.org/2000/svg">
<path d="M32.2975 12C32.2975 17.6076 32.2975 23.2153 26.6899 79.3763C21.0823 135.537 9.86707 242.082 4.49008 349.44C-0.886913 456.798 -0.0858259 561.74 7.13612 657.858C14.3581 753.977 27.9766 838.091 37.3954 887.831C46.8143 937.571 51.6208 950.389 59.3039 966.204C76.2271 1001.04 92.1363 1022.63 100.208 1028.29C104.096 1031.01 108.279 1032.34 111.945 1031.97C119.317 1031.21 124.52 1020.3 152.194 961.325C176.97 908.522 225.529 810.223 253.094 751.452C280.659 692.681 286.266 676.66 295.163 657.191C304.06 637.722 316.077 615.291 351.907 540.45C387.737 465.609 447.018 339.038 481.161 269.829C515.304 200.62 522.514 192.609 529.433 183.675C543.417 165.619 554.97 153.623 564.668 152.397C578.938 150.593 594.564 176.15 618.863 207.283C625.594 215.907 629.374 227.031 633.853 246.015C638.332 264.998 642.337 292.235 643.199 327.094C644.061 361.954 641.658 403.61 639.218 429.876C635.87 465.925 628.695 502.896 622.237 549.772C617.936 581 610.076 609.004 604.832 640.101C600.476 665.932 593.884 694.769 590.255 727.079C587.321 753.193 583.348 790.171 584.951 836.222C586.173 871.366 596.263 895.526 605.524 918.503C618.103 949.713 635.079 971.63 647.18 984.932C662.036 1001.26 675.522 1017.75 692.854 1029.05C714.276 1043.02 740.216 1046.13 763.217 1043.33C788.276 1040.27 810.614 1016.32 833.215 988.489C845.093 973.861 855.815 956.652 880.819 908.331C905.822 860.011 944.275 780.704 970.892 730.235C997.51 679.767 1011.13 660.541 1022.15 647.031C1039.93 625.232 1065.46 613.277 1096.54 604.78C1124.35 597.18 1144.06 604.295 1153.75 610.74C1165.13 618.314 1171.59 633.377 1185.26 659.922C1195.32 679.468 1213.34 710.499 1224.02 731.801C1234.7 753.103 1237.91 763.517 1243.16 788.508C1248.42 813.5 1255.63 852.753 1264.95 980.32C1274.27 1107.89 1285.49 1322.58 1296.47 1470.03C1307.46 1617.48 1317.87 1691.18 1323.24 1730.74C1328.6 1770.31 1328.6 1773.52 1328.6 1771.96" stroke="#5A49FF" stroke-width="200" stroke-linecap="round"/>
</svg>
