<svg width="1512" height="982" viewBox="0 0 1512 982" fill="none" xmlns="http://www.w3.org/2000/svg">
<path d="M-157 858.548C-138.709 862.524 -120.418 866.5 -72.0277 876.104C-23.6373 885.707 54.2981 900.817 103.195 908.601C152.091 916.385 169.587 916.385 186.95 914.794C204.313 913.204 221.013 910.023 241.943 903.612C262.873 897.202 287.526 887.659 306.986 879.164C326.446 870.669 339.965 863.512 355.677 850.282C371.39 837.051 388.885 817.965 408.634 789.444C428.383 760.923 449.855 723.546 467.279 686.796C484.702 650.045 497.426 615.054 509.15 566.808C520.874 518.562 531.213 458.122 536.141 412.672C541.069 367.222 540.274 338.592 537.876 317.482C533.99 283.272 520.248 256.223 495.486 220.617C479.713 197.936 450.048 171.492 428.95 151.984C407.851 132.476 394.332 122.137 376.631 110.449C338.114 85.0159 302.612 70.5418 279.357 66.9269C261.052 64.0816 247.112 68.0837 236.292 74.8795C223.831 82.7061 218.17 100.954 211.362 125.342C207.045 140.806 203.759 163.25 200.915 198.579C198.071 233.907 196.481 281.623 197.65 326.085C198.819 370.547 202.795 410.31 210.012 449.085C217.23 487.86 227.568 524.442 238.461 555.216C249.354 585.99 260.487 609.848 274.175 632.477C287.863 655.106 303.769 675.782 328.663 702.339C353.557 728.896 386.958 760.707 416.093 784.251C445.228 807.796 469.086 822.11 492.908 834.654C516.729 847.197 539.792 857.535 567.18 866.44C594.568 875.344 625.584 882.502 670.588 889.37C715.592 896.238 773.646 902.6 828.604 904.685C883.561 906.769 933.662 904.383 985.318 897.985C1036.97 891.587 1088.67 881.249 1138.36 864.789C1188.05 848.33 1234.17 826.062 1282.19 798.289C1330.21 770.515 1378.72 737.909 1440.29 684.928C1501.86 631.947 1575.03 559.578 1623.45 506.79C1671.88 454.001 1693.35 422.986 1715.47 388.621" stroke="#C8F135" stroke-width="200" stroke-linecap="round"/>
</svg>
