<svg width="1512" height="1699" viewBox="0 0 1512 1699" fill="none" xmlns="http://www.w3.org/2000/svg">
<path d="M-58 786.588C-44.8319 770.664 -31.6638 754.74 64.0045 653.804C159.673 552.868 337.442 367.403 446.944 258.278C556.445 149.153 592.291 121.989 628.681 98.6282C665.071 75.2676 700.917 56.5337 738.77 40.3261C776.623 24.1184 815.396 11.0047 847.44 4.71752C903.131 -6.20919 933.62 4.07888 942.477 13.0342C959.668 30.4183 947.742 69.2501 937.821 110.223C931.465 136.477 919.854 172.741 884.207 250.571C848.56 328.402 788.572 446.426 714.141 582.629C639.71 718.833 552.654 869.641 491.347 984.329C430.04 1099.02 397.12 1173.02 375.406 1229.87C353.692 1286.73 344.181 1324.19 337.819 1356.61C331.457 1389.02 328.53 1415.25 326.657 1440C324.784 1464.75 324.052 1487.23 326.236 1516.14C328.42 1545.05 333.54 1579.71 339.105 1607.4C348.751 1655.4 366.793 1690.02 392.919 1719.28C407.525 1735.64 430.018 1746.67 450.092 1753.43C470.165 1760.18 488.454 1760.18 517.628 1748.47C546.802 1736.76 586.306 1713.35 651.282 1659.13C716.258 1604.92 805.508 1520.62 912.205 1393.82C1018.9 1267.03 1140.34 1100.29 1219.73 998.948C1299.11 897.6 1332.76 866.689 1357.78 847.019C1396.65 816.456 1422.04 812.134 1434.96 814.944C1440.23 816.09 1441.3 823.374 1442.06 828.143C1444.56 843.97 1436.91 890.277 1435.06 957.364C1433.78 1003.82 1439.82 1041.85 1451.94 1088.98C1459.16 1117.03 1473.58 1151.1 1484.39 1174.58C1501.16 1211 1515.92 1223.68 1526.96 1228.41C1541.75 1234.74 1559.48 1230.35 1587.77 1220.96C1608.17 1214.18 1640.2 1200.32 1664.1 1191.69C1687.99 1183.06 1702.62 1179.32 1711.62 1176.45C1720.63 1173.58 1723.55 1171.71 1731 1166.94" stroke="#C8F135" stroke-width="200" stroke-linecap="round"/>
</svg>
