<svg width="1512" height="982" viewBox="0 0 1512 982" fill="none" xmlns="http://www.w3.org/2000/svg">
<path d="M-142 845.548C-123.709 849.524 -105.418 853.5 -57.0277 863.104C-8.63734 872.707 69.2981 887.817 118.195 895.601C167.091 903.385 184.587 903.385 201.95 901.794C219.313 900.204 236.013 897.023 256.943 890.612C277.873 884.202 302.526 874.659 321.986 866.164C341.446 857.669 354.965 850.512 370.677 837.282C386.39 824.051 403.885 804.965 423.634 776.444C443.383 747.923 464.855 710.546 482.279 673.796C499.702 637.045 512.426 602.054 524.15 553.808C535.874 505.562 546.213 445.122 551.141 399.672C556.069 354.222 555.274 325.592 552.876 304.482C548.99 270.272 535.248 243.223 510.486 207.617C494.713 184.936 465.048 158.492 443.95 138.984C422.851 119.476 409.332 109.137 391.631 97.4493C353.114 72.0159 317.612 57.5418 294.357 53.9269C276.052 51.0816 262.112 55.0837 251.292 61.8795C238.831 69.7061 233.17 87.9544 226.362 112.342C222.045 127.806 218.759 150.25 215.915 185.579C213.071 220.907 211.481 268.623 212.65 313.085C213.819 357.547 217.795 397.31 225.012 436.085C232.23 474.86 242.568 511.442 253.461 542.216C264.354 572.99 275.487 596.848 289.175 619.477C302.863 642.106 318.769 662.782 343.663 689.339C368.557 715.896 401.958 747.707 431.093 771.251C460.228 794.796 484.086 809.11 507.908 821.654C531.729 834.197 554.792 844.535 582.18 853.44C609.568 862.344 640.584 869.502 685.588 876.37C730.592 883.238 788.646 889.6 843.604 891.685C898.561 893.769 948.662 891.383 1000.32 884.985C1051.97 878.587 1103.67 868.249 1153.36 851.789C1203.05 835.33 1249.17 813.062 1297.19 785.289C1345.21 757.515 1393.72 724.909 1455.29 671.928C1516.86 618.947 1590.03 546.578 1638.45 493.79C1686.88 441.001 1708.35 409.986 1730.47 375.621" stroke="#C8F135" stroke-width="200" stroke-linecap="round"/>
</svg>
