<svg width="1512" height="1522" viewBox="0 0 1512 1522" fill="none" xmlns="http://www.w3.org/2000/svg">
<path d="M-20.792 533.617C-2.61008 512.708 15.5718 491.799 105.848 396.936C196.124 302.073 357.943 133.89 450.395 40.4327C542.847 -53.025 561.029 -66.6615 583.578 -80.959C631.533 -111.367 675.107 -130.243 706.705 -139.871C738.493 -149.557 761.526 -149.582 772.063 -147.764C777.383 -146.846 781.691 -142.309 784.488 -137.254C787.284 -132.199 788.193 -125.835 788.661 -119.83C789.129 -113.824 789.129 -108.37 767.766 -57.8323C746.402 -7.29482 703.674 88.1602 614.845 242.789C526.015 397.418 392.378 608.328 313.08 759.706C233.782 911.084 212.873 996.539 203.465 1041.47C194.058 1086.4 196.785 1088.22 203.19 1090.07C219.342 1094.72 244.443 1095.6 283.3 1088.79C308.17 1084.42 341.248 1068.33 373.122 1052.67C404.995 1037.01 434.086 1019.74 469.982 993.564C505.877 967.393 547.696 932.848 638.33 847.324C728.964 761.8 867.146 626.345 947.422 551.11C1027.7 475.876 1045.88 464.966 1075.25 451.165C1104.61 437.363 1144.61 420.999 1176.58 412.115C1230.12 397.237 1262.88 406.839 1277.09 416.922C1298.32 431.98 1296.02 474.663 1292.38 514.939C1290.37 537.239 1281.47 562.488 1177.27 740.602C1073.07 918.715 872.16 1248.72 760.479 1437.35C648.798 1625.99 632.434 1663.26 624.005 1684.28C615.575 1705.3 615.575 1708.94 619.666 1710.36C631.271 1714.38 654.914 1705.39 714.68 1678.95C760.626 1658.63 835.356 1617.97 1036.05 1476.47C1236.74 1334.97 1560.37 1092.24 1733.91 960.837C1907.45 829.431 1921.09 816.704 1929.48 809.693C1937.87 802.682 1940.6 801.773 1943.41 795.326" stroke="#5A49FF" stroke-width="180" stroke-linecap="round"/>
</svg>
