<svg width="1512" height="1699" viewBox="0 0 1512 1699" fill="none" xmlns="http://www.w3.org/2000/svg">
<path d="M-116 757.588C-102.832 741.664 -89.6638 725.74 6.0045 624.804C101.673 523.868 279.442 338.403 388.944 229.278C498.445 120.153 534.292 92.9888 570.681 69.6282C607.071 46.2676 642.917 27.5337 680.77 11.3261C718.623 -4.88158 757.396 -17.9953 789.44 -24.2825C845.131 -35.2092 875.62 -24.9211 884.477 -15.9658C901.669 1.41827 889.742 40.2501 879.821 81.2234C873.465 107.477 861.854 143.741 826.207 221.571C790.56 299.402 730.572 417.426 656.141 553.629C581.71 689.833 494.654 840.641 433.347 955.329C372.04 1070.02 339.12 1144.02 317.406 1200.87C295.692 1257.73 286.181 1295.19 279.819 1327.61C273.457 1360.02 270.53 1386.25 268.657 1411C266.784 1435.75 266.052 1458.23 268.236 1487.14C270.42 1516.05 275.541 1550.71 281.105 1578.4C290.751 1626.4 308.793 1661.02 334.919 1690.28C349.525 1706.64 372.018 1717.67 392.092 1724.43C412.165 1731.18 430.454 1731.18 459.628 1719.47C488.802 1707.76 528.306 1684.35 593.282 1630.13C658.258 1575.92 747.508 1491.62 854.205 1364.82C960.903 1238.03 1082.34 1071.29 1161.73 969.948C1241.11 868.6 1274.76 837.689 1299.78 818.019C1338.65 787.456 1364.04 783.134 1376.96 785.944C1382.23 787.09 1383.3 794.374 1384.06 799.143C1386.56 814.97 1378.91 861.277 1377.06 928.364C1375.78 974.817 1381.82 1012.85 1393.94 1059.98C1401.16 1088.03 1415.58 1122.1 1426.39 1145.58C1443.16 1182 1457.92 1194.68 1468.96 1199.41C1483.75 1205.74 1501.48 1201.35 1529.77 1191.96C1550.17 1185.18 1582.2 1171.32 1606.1 1162.69C1629.99 1154.06 1644.62 1150.32 1653.62 1147.45C1662.63 1144.58 1665.55 1142.71 1673 1137.94" stroke="#C8F135" stroke-width="200" stroke-linecap="round"/>
</svg>
