<svg width="540" height="827" viewBox="0 0 540 827" fill="none" xmlns="http://www.w3.org/2000/svg">
<path d="M208.205 90.0122C203.458 97.6321 198.711 105.252 183.211 128.89C167.711 152.528 141.602 191.952 125.977 216.735C110.351 241.517 106 250.462 101.978 261.531C97.9562 272.599 94.3959 285.52 92.3641 295.82C88.918 313.29 89.9246 325.557 91.1174 334.407C92.1928 342.386 96.3019 349.33 103.057 358.491C107.502 364.52 115.35 372.622 124.167 379.87C141.629 394.227 157.414 401.214 166.38 404.889C175.389 408.58 191.71 410.26 212.646 411.434C230.781 412.452 244.91 408.945 256.268 405.943C262.137 404.392 268.022 402.278 279.584 396.947C291.146 391.616 308.156 383.003 321.27 375.749C334.384 368.496 343.087 362.864 356.075 352.508C369.064 342.152 386.074 327.244 396.815 316.913C412.415 301.909 418.356 293.17 423.739 287.001C426.658 283.655 428.725 279.175 432.519 269.336C442.123 244.431 446.754 227.231 447.15 224.229C447.647 220.455 449.547 217.523 449.949 217.011C450.265 216.608 449.559 219.481 434.521 302.667C419.483 385.854 389.814 550.179 374.332 639.304C358.851 728.429 358.455 737.374 357.658 745.461C355.674 760.505 354.451 768.998 354.253 770.012C354.056 769.701 353.66 767.713 353.252 765.665" stroke="white" stroke-width="180" stroke-linecap="round"/>
</svg>
