<svg width="205" height="203" viewBox="0 0 205 203" fill="none" xmlns="http://www.w3.org/2000/svg">
<g clip-path="url(#clip0_6_506)">
<path d="M117.904 38.2325C105.473 43.3326 105.162 43.2332 95.4193 37.7705C90.47 35.0142 85.8415 32.8643 85.2287 33.1725C84.6159 33.4807 82.7959 38.1061 81.1411 43.2882L78.0747 52.8902L65.287 49.9822C50.9434 46.5774 50.9434 46.5774 51.8633 59.8037C52.2119 64.6179 51.9869 69.0808 51.2768 69.6938C50.5666 70.3068 45.8495 71.6557 40.9186 72.6004C35.832 73.4954 31.533 75.1457 31.2896 75.9078C30.9976 76.8222 33.9625 80.9602 37.7541 85.1943C41.5456 89.4283 44.6079 93.2614 44.4619 93.7187C44.3158 94.1759 40.687 98.5596 36.3481 103.556C31.8535 108.503 28.7984 113.238 29.4303 113.944C30.0622 114.65 35.3522 116.339 41.3037 117.568L52.0687 119.83L47.5143 129.796L43.1155 139.813L49.0574 140.534C52.3152 141.071 57.4304 141.697 60.5326 142.183C65.6478 142.809 66.1728 143.313 67.6002 150.655C68.4547 154.959 70.2332 159.054 71.3806 159.756C72.7322 160.356 78.3341 159.457 83.9656 157.393L94.3143 153.979L100.099 160.025C108.985 169.245 110.376 169.186 117.138 158.748L123.102 149.736L132.904 152.866C139.439 154.953 143.056 155.436 143.397 154.369C143.738 153.303 143.691 148.081 143.537 142.657L143.092 132.774L153.568 127.889L164.15 123.207L158.065 114.881C154.575 110.239 151.873 106.353 152.019 105.896C152.116 105.591 155.297 102.072 159.091 98.2452C167.234 89.9283 167.01 89.0172 155.361 83.6175L148.234 80.1657L151.795 72.2335L155.513 64.351L145.4 61.1214L135.286 57.8918L132.207 47.6707C128.845 36.184 126.551 34.7794 117.904 38.2325ZM129.745 51.0836L132.135 60.2445L141.47 63.2257L150.805 66.2068L147.963 74.0329L145.072 82.0114L153.551 86.0628L161.982 90.2667L154.598 97.8181L147.059 105.32L153.037 113.444L159.016 121.567L149.367 126.548L139.718 131.528L140.114 141.564L140.616 151.802L130.824 149.179L121.187 146.605L116.235 154.597C113.432 159.077 110.611 162.543 109.833 162.294C108.9 161.996 106.07 159.581 103.183 156.811C100.295 154.042 97.3104 151.577 96.2212 151.229C95.2877 150.931 90.1525 151.978 84.9782 153.685C79.8039 155.392 75.4953 156.535 75.2814 156.131C75.0676 155.727 74.3783 151.98 73.6793 147.725C72.2328 139.37 72.0772 139.32 59.639 138.539L50.5072 138.142L54.3905 128.129L58.1183 118.067L48.6179 114.529L39.2731 111.041L45.4607 102.939L51.804 94.8877L46.8077 86.9098L41.9183 79.134L49.6115 77.056C58.2774 74.6167 58.5303 74.3616 58.5727 62.9541C58.6421 58.4414 59.0323 54.5351 59.6451 54.2269C60.1023 53.8691 65.1689 54.6473 70.6049 55.8793L80.6989 58.0951L85.01 48.8905C88.4354 41.9225 89.8947 40.0372 91.4115 41.1934C92.3546 41.9984 96.4677 44.1517 100.367 45.9008C107.076 49.0511 108.107 49.0444 117.114 45.5382C122.279 43.3246 126.733 41.7239 127.044 41.8233C127.2 41.873 128.463 45.9714 129.745 51.0836Z" fill="#48474F"/>
<path d="M109.921 95.9796C100.165 103.445 91.2642 109.84 90.3402 110.049C89.212 110.361 86.062 107.339 83.1553 103.556C80.093 99.7227 76.7292 96.2971 75.4845 95.8996C73.3062 95.204 64.6882 100.178 63.9581 102.464C63.7148 103.226 68.5851 109.988 74.6027 117.452C82.3118 127.136 86.823 131.264 89.0404 131.3C92.6484 131.277 137.628 97.2695 138.796 93.6116C139.185 92.3923 138.311 89.7617 136.833 87.9461C131.389 80.833 128.724 81.6616 109.921 95.9796ZM135.305 91.6571C135.752 93.4793 93.3498 127.47 89.4497 128.408C87.7574 128.875 70.6667 108.301 71.2508 106.472C71.4455 105.863 72.9144 104.484 74.4416 103.46C76.9318 101.568 77.6124 102.122 83.63 109.586C87.3729 113.972 91.2035 117.547 92.5456 117.64C93.7807 117.53 102.934 110.88 112.837 102.957C130.259 89.2057 134.14 87.2539 135.305 91.6571Z" fill="#48474F"/>
</g>
<defs>
<clipPath id="clip0_6_506">
<rect width="163.329" height="159.996" fill="white" transform="translate(48.6721) rotate(17.7106)"/>
</clipPath>
</defs>
</svg>
