<svg width="40" height="18" viewBox="0 0 40 18" fill="none" xmlns="http://www.w3.org/2000/svg">
<path fill-rule="evenodd" clip-rule="evenodd" d="M2.94857 0.108883C3.51399 0.108883 4.0794 0.268679 4.58199 0.614042L20.2351 11.3255L35.4057 0.508372C36.0582 0.062695 36.8566 -0.0988898 37.6252 0.0591641C38.3939 0.217218 39.0698 0.681964 39.5043 1.35116C39.9389 2.02036 40.0964 2.83919 39.9423 3.62753C39.7882 4.41587 39.3351 5.10913 38.6826 5.55481L21.876 17.4879C21.3915 17.8209 20.8216 17.9991 20.2384 18C19.6551 18.0009 19.0847 17.8245 18.5992 17.493L1.31014 5.66563C0.784174 5.30345 0.385374 4.77776 0.172359 4.16584C-0.0406553 3.55392 -0.0566478 2.88805 0.126733 2.26612C0.310113 1.64419 0.683192 1.099 1.19113 0.71069C1.69907 0.322383 2.31506 0.111445 2.94857 0.108883Z" fill="white"/>
</svg>
