<svg width="26" height="26" viewBox="0 0 26 26" fill="none" xmlns="http://www.w3.org/2000/svg">
<path d="M0.920208 0.906273C-0.546459 2.35073 -0.146459 20.9973 1.32021 20.9973C2.12021 20.9973 2.65354 17.0579 2.65354 11.8054V2.61336H11.9869C17.3202 2.61336 21.3202 2.0881 21.3202 1.30022C21.3202 -0.144239 2.38687 -0.538183 0.920208 0.906273Z" fill="black"/>
<path d="M5.85364 6.94655C5.45364 7.99707 5.32031 12.5931 5.58698 17.1891L5.98698 25.5932H15.987H25.987V15.7446V5.89604L16.2536 5.5021C8.92031 5.23947 6.38698 5.63341 5.85364 6.94655ZM23.987 15.7446V23.6235H15.987H7.98698V15.7446V7.86576H15.987H23.987V15.7446Z" fill="black"/>
</svg>
