<svg width="60" height="61" viewBox="0 0 60 61" fill="none" xmlns="http://www.w3.org/2000/svg">
<path d="M28.231 0.0464363C17.6606 0.634338 8.07777 6.91313 3.23346 16.4254C1.01119 20.7876 0 25.0323 0 30.0294C0 35.1207 1.04647 39.4476 3.37456 43.8922C7.46635 51.7348 14.8269 57.4021 23.469 59.354C27.3257 60.2241 32.0289 60.2711 35.9914 59.4716C47.573 57.1435 56.9794 47.7958 59.3898 36.2377C60.1894 32.4046 60.2011 27.8424 59.4369 24.0328C58.3081 18.4007 55.3216 12.8745 51.1945 8.78266C45.0803 2.69199 36.8732 -0.423885 28.231 0.0464363ZM34.1336 14.45C36.4617 17.0133 37.9432 18.73 37.9667 18.9063C37.9902 19.0592 37.9197 19.2708 37.8138 19.3766C37.6492 19.5413 37.2259 19.5648 34.5686 19.5648H31.5233V28.0306C31.5233 37.2254 31.5351 37.0137 30.8766 37.5311C30.4298 37.8838 29.5597 37.8838 29.1129 37.5311C28.4544 37.0137 28.4662 37.2254 28.4662 28.0306V19.5648H25.4209C22.7636 19.5648 22.3403 19.5413 22.1757 19.3766C22.0698 19.2708 21.9993 19.0592 22.0228 18.9063C22.0463 18.7535 23.5984 16.9427 25.8559 14.4618C29.1717 10.8168 29.7008 10.2759 29.9948 10.2759C30.2887 10.2759 30.8296 10.8168 34.1336 14.45ZM22.3638 25.0558C23.0222 25.4438 23.2456 26.3727 22.8223 27.0546C22.4108 27.7249 22.4108 27.7366 17.978 27.7954C14.0861 27.8542 13.8862 27.866 13.5688 28.1011C13.3924 28.2305 13.1455 28.5244 13.0279 28.7478C12.8398 29.1123 12.828 29.6297 12.8515 35.4381L12.8868 41.7287L13.169 42.1285C13.7099 42.8927 12.6869 42.8457 29.9948 42.8457C47.3026 42.8457 46.2796 42.8927 46.8205 42.1285L47.1027 41.7287L47.138 35.4381C47.1615 29.6297 47.1497 29.1123 46.9616 28.7478C46.844 28.5244 46.5971 28.2305 46.4207 28.1011C46.1033 27.866 45.9034 27.8542 42.0115 27.7954C37.5787 27.7366 37.5787 27.7249 37.1672 27.0546C36.885 26.6078 36.8732 26.1375 37.1084 25.6319C37.4846 24.8441 37.367 24.8559 43.4224 24.8559C48.643 24.8559 48.8782 24.8677 49.2544 25.0911C49.4661 25.2204 49.7365 25.4908 49.8658 25.7025C50.0892 26.0787 50.101 26.3139 50.101 35.2618C50.101 45.4913 50.148 44.9504 49.2897 45.5148L48.8899 45.7852H29.9948H11.0996L10.6998 45.5148C9.84148 44.9504 9.88851 45.4913 9.88851 35.2618C9.88851 26.3139 9.90027 26.0787 10.1237 25.7025C10.253 25.4908 10.5234 25.2204 10.7351 25.0911C11.1113 24.8677 11.3465 24.8559 16.5671 24.8559C21.4937 24.8559 22.0581 24.8794 22.3638 25.0558Z" fill="#5A49FF"/>
</svg>
