<svg width="52" height="51" viewBox="0 0 52 51" fill="none" xmlns="http://www.w3.org/2000/svg">
<path d="M26 0C11.6637 0 0 11.4394 0 25.5C0 39.5606 11.6637 51 26 51C40.3363 51 52 39.5606 52 25.5C52 11.4394 40.3363 0 26 0ZM30 37.2692H22C21.4696 37.2692 20.9609 37.0626 20.5858 36.6947C20.2107 36.3269 20 35.8279 20 35.3077C20 34.7875 20.2107 34.2885 20.5858 33.9207C20.9609 33.5528 21.4696 33.3462 22 33.3462H30C30.5304 33.3462 31.0391 33.5528 31.4142 33.9207C31.7893 34.2885 32 34.7875 32 35.3077C32 35.8279 31.7893 36.3269 31.4142 36.6947C31.0391 37.0626 30.5304 37.2692 30 37.2692ZM36 29.4231H16C15.4696 29.4231 14.9609 29.2164 14.5858 28.8486C14.2107 28.4807 14 27.9818 14 27.4615C14 26.9413 14.2107 26.4424 14.5858 26.0745C14.9609 25.7067 15.4696 25.5 16 25.5H36C36.5304 25.5 37.0391 25.7067 37.4142 26.0745C37.7893 26.4424 38 26.9413 38 27.4615C38 27.9818 37.7893 28.4807 37.4142 28.8486C37.0391 29.2164 36.5304 29.4231 36 29.4231ZM40 21.5769H12C11.4696 21.5769 10.9609 21.3703 10.5858 21.0024C10.2107 20.6345 10 20.1356 10 19.6154C10 19.0952 10.2107 18.5962 10.5858 18.2284C10.9609 17.8605 11.4696 17.6538 12 17.6538H40C40.5304 17.6538 41.0391 17.8605 41.4142 18.2284C41.7893 18.5962 42 19.0952 42 19.6154C42 20.1356 41.7893 20.6345 41.4142 21.0024C41.0391 21.3703 40.5304 21.5769 40 21.5769Z" fill="white"/>
</svg>
