<svg width="39" height="36" viewBox="0 0 39 36" fill="none" xmlns="http://www.w3.org/2000/svg">
<path fill-rule="evenodd" clip-rule="evenodd" d="M19.5 36C24.6717 36 29.6316 34.1036 33.2886 30.7279C36.9455 27.3523 39 22.7739 39 18C39 13.2261 36.9455 8.64773 33.2886 5.27208C29.6316 1.89642 24.6717 0 19.5 0C14.3283 0 9.36838 1.89642 5.71142 5.27208C2.05446 8.64773 0 13.2261 0 18C0 22.7739 2.05446 27.3523 5.71142 30.7279C9.36838 34.1036 14.3283 36 19.5 36ZM21.5893 9.64286V16.0714H28.5536C29.1077 16.0714 29.6391 16.2746 30.0309 16.6363C30.4227 16.998 30.6429 17.4885 30.6429 18C30.6429 18.5115 30.4227 19.002 30.0309 19.3637C29.6391 19.7254 29.1077 19.9286 28.5536 19.9286H21.5893V26.3571C21.5893 26.8686 21.3692 27.3592 20.9773 27.7208C20.5855 28.0825 20.0541 28.2857 19.5 28.2857C18.9459 28.2857 18.4145 28.0825 18.0227 27.7208C17.6308 27.3592 17.4107 26.8686 17.4107 26.3571V19.9286H10.4464C9.89232 19.9286 9.3609 19.7254 8.96908 19.3637C8.57726 19.002 8.35714 18.5115 8.35714 18C8.35714 17.4885 8.57726 16.998 8.96908 16.6363C9.3609 16.2746 9.89232 16.0714 10.4464 16.0714H17.4107V9.64286C17.4107 9.13137 17.6308 8.64083 18.0227 8.27915C18.4145 7.91747 18.9459 7.71429 19.5 7.71429C20.0541 7.71429 20.5855 7.91747 20.9773 8.27915C21.3692 8.64083 21.5893 9.13137 21.5893 9.64286Z" fill="#5A49FF"/>
</svg>
