<svg width="54" height="52" viewBox="0 0 54 52" fill="none" xmlns="http://www.w3.org/2000/svg">
<path d="M24.9456 0.0466614C22.3033 0.338333 20.5172 0.69035 18.5196 1.33404C12.675 3.18464 7.7498 6.79533 4.35715 11.7035C3.3848 13.1216 2.14823 15.4751 1.55636 17.034C0.996207 18.5024 0.436051 20.6547 0.203533 22.264C-0.0606925 24.024 -0.0712615 27.4839 0.192964 29.2037C1.56693 38.1248 7.52785 45.6781 15.9831 49.2184C23.5927 52.4067 31.9422 52.1955 39.3088 48.6351C45.5551 45.6178 50.4169 40.2269 52.668 33.8202C53.6193 31.0946 53.9892 28.902 53.9997 25.8344C54.0103 22.797 53.6932 20.7352 52.7843 18.0498C49.4128 8.00225 40.4291 1.153 29.2366 0.086895C28.2325 -0.00362396 25.6854 -0.0337982 24.9456 0.0466614ZM27.2919 9.3902C29.7967 9.78244 32.2276 10.8687 34.3203 12.5282C36.5926 14.3285 38.3259 16.9837 39.2771 20.1016C39.4674 20.7251 39.5096 21.2079 39.5519 22.8976C39.5942 24.195 39.5625 25.231 39.4779 25.764C39.3405 26.7396 38.7275 28.5399 38.1145 29.8072L37.6706 30.7023L40.4503 33.3475L43.2299 35.9926L40.5031 38.5774L37.7869 41.1723L35.0073 38.5271L32.2276 35.882L31.3187 36.2944C30.1667 36.8073 28.1057 37.461 27.2179 37.5918C26.161 37.7527 22.7366 37.7326 21.7643 37.5516C17.2725 36.7369 13.2351 33.79 11.1319 29.8172C10.5506 28.721 10.2441 27.9063 9.92701 26.6994C9.6945 25.7741 9.67336 25.4723 9.67336 23.4407C9.67336 21.057 9.7262 20.6346 10.2652 19.0455C11.8294 14.4693 16.0359 10.748 20.9822 9.54106C21.4578 9.42037 22.1236 9.28962 22.4513 9.23933C23.2651 9.11864 26.1187 9.1991 27.2919 9.3902Z" fill="white"/>
<path d="M22.5687 15.6762C19.6093 16.4205 17.1785 18.7539 16.4386 21.5499C16.1533 22.6462 16.1533 24.3057 16.4386 25.3919C17.1785 28.1577 19.5671 30.471 22.463 31.2354C23.5304 31.5069 25.7394 31.4868 26.8385 31.1851C28.3499 30.7727 29.2483 30.2497 30.4954 29.0529C31.3832 28.2181 31.7108 27.8258 32.049 27.1922C33.1694 25.1304 33.3173 22.8373 32.4929 20.6548C32.0808 19.5685 31.4149 18.6835 30.2206 17.5972C29.4385 16.8831 29.0369 16.6015 28.3499 16.2897C27.0816 15.7064 26.4158 15.5656 24.7881 15.5153C23.5938 15.4851 23.2345 15.5052 22.5687 15.6762Z" fill="white"/>
</svg>
