<svg width="42" height="36" viewBox="0 0 42 36" fill="none" xmlns="http://www.w3.org/2000/svg">
<path d="M20.22 3.16405C20.0067 3.25545 17.9642 4.94998 14.5024 7.9242C10.3681 11.475 9.07197 12.6211 8.94892 12.8672C8.28447 14.1328 9.76103 15.3984 11.2376 14.8289C11.5165 14.7234 12.5419 13.8867 15.4458 11.4047L19.2767 8.12108V16.2281C19.2767 23.3859 19.2931 24.3633 19.3997 24.5953C19.9247 25.664 21.6392 25.8047 22.4349 24.8344L22.681 24.525L22.7056 16.3265L22.722 8.12811L26.561 11.4047C29.4567 13.8867 30.4821 14.7234 30.761 14.8289C32.2622 15.4125 33.7552 14.0906 33.0169 12.825C32.7462 12.3609 22.1806 3.29764 21.7212 3.12889C21.2946 2.98123 20.622 2.9953 20.22 3.16405Z" fill="#5A49FF"/>
<path d="M2.69845 18.1969C2.37853 18.3375 2.18986 18.4852 2.00939 18.7383L1.76329 19.0758L1.73868 22.5633C1.70587 26.543 1.75509 27.0773 2.18986 28.2164C2.69845 29.5312 3.70743 30.7406 4.99532 31.5844C5.69259 32.0344 6.98868 32.5758 7.87462 32.7797L8.57189 32.9414H20.9996H33.4274L34.1 32.7867C37.1926 32.0766 39.4156 30.0375 40.1293 27.2461C40.2113 26.9227 40.236 25.8891 40.236 22.95V19.0758L39.9899 18.7383C39.6289 18.2391 39.0219 17.9719 38.3656 18.0211C37.7914 18.0633 37.3402 18.2953 37.0203 18.7172L36.7906 19.0125L36.7496 22.9148L36.7086 26.8242L36.4953 27.2883C35.9129 28.575 34.9777 29.3625 33.4684 29.8266L32.9352 29.9883H20.9996H9.06407L8.53087 29.8266C7.21837 29.4187 6.29962 28.7367 5.75001 27.7594C5.56954 27.4359 5.38907 26.9859 5.33986 26.7609C5.28243 26.5008 5.24962 25.0172 5.24962 22.8305C5.24962 20.257 5.22501 19.2375 5.15118 19.0266C5.01993 18.6539 4.48673 18.1969 4.05197 18.0844C3.52697 17.9508 3.17423 17.9789 2.69845 18.1969Z" fill="#5A49FF"/>
</svg>
